<svg width="180" height="180" viewBox="0 0 180 180" fill="none" xmlns="http://www.w3.org/2000/svg">
<g filter="url(#filter0_d_0_169)">
<mask id="path-1-inside-1_0_169" fill="white">
<path fill-rule="evenodd" clip-rule="evenodd" d="M139.892 136.381C168.012 106.723 166.765 59.8866 137.107 31.7658C107.449 3.64774 60.6119 4.89487 32.4925 34.5518C7.3586 61.0606 5.68613 101.295 26.7924 129.619L22.8927 152.231L45.2651 147.133C74.6727 166.701 114.759 162.889 139.892 136.381Z"/>
</mask>
<path fill-rule="evenodd" clip-rule="evenodd" d="M139.892 136.381C168.012 106.723 166.765 59.8866 137.107 31.7658C107.449 3.64774 60.6119 4.89487 32.4925 34.5518C7.3586 61.0606 5.68613 101.295 26.7924 129.619L22.8927 152.231L45.2651 147.133C74.6727 166.701 114.759 162.889 139.892 136.381Z" fill="white"/>
<path d="M137.107 31.7658L138.483 30.3145L138.483 30.3144L137.107 31.7658ZM139.892 136.381L141.344 137.757L141.344 137.757L139.892 136.381ZM32.4925 34.5518L31.0411 33.1757L31.0411 33.1758L32.4925 34.5518ZM26.7924 129.619L28.7633 129.959L28.9093 129.113L28.3961 128.424L26.7924 129.619ZM22.8927 152.231L20.9218 151.891L20.4119 154.847L23.337 154.181L22.8927 152.231ZM45.2651 147.133L46.3731 145.468L45.6581 144.992L44.8208 145.183L45.2651 147.133ZM135.731 33.2171C164.587 60.5779 165.8 106.149 138.441 135.005L141.344 137.757C170.223 107.298 168.942 59.1952 138.483 30.3145L135.731 33.2171ZM33.9438 35.9279C61.3032 7.07249 106.875 5.85907 135.731 33.2172L138.483 30.3144C108.024 1.43641 59.9205 2.71725 31.0411 33.1757L33.9438 35.9279ZM28.3961 128.424C7.86117 100.866 9.49064 61.7188 33.9438 35.9279L31.0411 33.1758C5.22656 60.4025 3.5111 101.723 25.1887 130.814L28.3961 128.424ZM24.8636 152.57L28.7633 129.959L24.8215 129.279L20.9218 151.891L24.8636 152.57ZM44.8208 145.183L22.4484 150.281L23.337 154.181L45.7094 149.083L44.8208 145.183ZM138.441 135.005C113.988 160.795 74.9847 164.506 46.3731 145.468L44.1572 148.798C74.3608 168.896 115.53 164.983 141.344 137.757L138.441 135.005Z" fill="#333333" mask="url(#path-1-inside-1_0_169)"/>
</g>
<defs>
<filter id="filter0_d_0_169" x="0.0921388" y="0.0667968" width="180" height="180" filterUnits="userSpaceOnUse" color-interpolation-filters="sRGB">
<feFlood flood-opacity="0" result="BackgroundImageFix"/>
<feColorMatrix in="SourceAlpha" type="matrix" values="0 0 0 0 0 0 0 0 0 0 0 0 0 0 0 0 0 0 127 0" result="hardAlpha"/>
<feOffset dx="3.9" dy="4.6"/>
<feGaussianBlur stdDeviation="8"/>
<feColorMatrix type="matrix" values="0 0 0 0 0.305882 0 0 0 0 0.278431 0 0 0 0 0.360784 0 0 0 0.26 0"/>
<feBlend mode="normal" in2="BackgroundImageFix" result="effect1_dropShadow_0_169"/>
<feBlend mode="normal" in="SourceGraphic" in2="effect1_dropShadow_0_169" result="shape"/>
</filter>
</defs>
</svg>
