<svg width="93" height="93" viewBox="0 0 93 93" fill="none" xmlns="http://www.w3.org/2000/svg">
<g filter="url(#filter0_d_0_206)">
<mask id="path-1-inside-1_0_206" fill="white">
<path fill-rule="evenodd" clip-rule="evenodd" d="M16.1333 17.3314C1.1367 33.151 1.80171 58.1345 17.6188 73.1345C33.4357 88.1325 58.4151 87.4675 73.4118 71.648C86.8163 57.5081 87.7081 36.0461 76.4512 20.9374L78.5321 8.87761L66.5991 11.5954C50.9155 1.15834 29.5371 3.19186 16.1333 17.3314Z"/>
</mask>
<path fill-rule="evenodd" clip-rule="evenodd" d="M16.1333 17.3314C1.1367 33.151 1.80171 58.1345 17.6188 73.1345C33.4357 88.1325 58.4151 87.4675 73.4118 71.648C86.8163 57.5081 87.7081 36.0461 76.4512 20.9374L78.5321 8.87761L66.5991 11.5954C50.9155 1.15834 29.5371 3.19186 16.1333 17.3314Z" fill="white"/>
<path d="M17.6188 73.1345L17.0316 73.7537L17.0316 73.7537L17.6188 73.1345ZM16.1333 17.3314L16.7526 17.9185L16.7526 17.9185L16.1333 17.3314ZM73.4118 71.648L72.7925 71.0609L72.7925 71.0609L73.4118 71.648ZM76.4512 20.9374L75.6103 20.7923L75.548 21.1534L75.7669 21.4472L76.4512 20.9374ZM78.5321 8.87761L79.373 9.02271L79.5907 7.76133L78.3426 8.04558L78.5321 8.87761ZM66.5991 11.5954L66.1263 12.3058L66.4313 12.5088L66.7886 12.4274L66.5991 11.5954ZM18.206 72.5153C2.73081 57.8395 2.08019 33.396 16.7526 17.9185L15.514 16.7444C0.193205 32.9059 0.872614 58.4294 17.0316 73.7537L18.206 72.5153ZM72.7925 71.0609C58.12 86.5384 33.6809 87.189 18.2059 72.5153L17.0316 73.7537C33.1906 89.076 58.7101 88.3966 74.0311 72.2351L72.7925 71.0609ZM75.7669 21.4472C86.7801 36.2289 85.9067 57.2273 72.7925 71.0609L74.0311 72.2351C87.726 57.7888 88.6361 35.8634 77.1355 20.4275L75.7669 21.4472ZM77.6912 8.73251L75.6103 20.7923L77.2921 21.0825L79.373 9.02271L77.6912 8.73251ZM66.7886 12.4274L78.7216 9.70964L78.3426 8.04558L66.4096 10.7634L66.7886 12.4274ZM16.7526 17.9185C29.866 4.08527 50.7824 2.0948 66.1263 12.3058L67.0718 10.885C51.0485 0.221882 29.2082 2.29844 15.514 16.7444L16.7526 17.9185Z" fill="#333333" mask="url(#path-1-inside-1_0_206)"/>
</g>
<defs>
<filter id="filter0_d_0_206" x="0.14418" y="0.15309" width="92.5848" height="92.5982" filterUnits="userSpaceOnUse" color-interpolation-filters="sRGB">
<feFlood flood-opacity="0" result="BackgroundImageFix"/>
<feColorMatrix in="SourceAlpha" type="matrix" values="0 0 0 0 0 0 0 0 0 0 0 0 0 0 0 0 0 0 127 0" result="hardAlpha"/>
<feOffset dx="1.664" dy="1.96267"/>
<feGaussianBlur stdDeviation="3.41333"/>
<feColorMatrix type="matrix" values="0 0 0 0 0.305882 0 0 0 0 0.278431 0 0 0 0 0.360784 0 0 0 0.26 0"/>
<feBlend mode="normal" in2="BackgroundImageFix" result="effect1_dropShadow_0_206"/>
<feBlend mode="normal" in="SourceGraphic" in2="effect1_dropShadow_0_206" result="shape"/>
</filter>
</defs>
</svg>
